<mxfile host="app.diagrams.net" agent="Mozilla/5.0 (Windows NT 10.0; Win64; x64) AppleWebKit/537.36 (KHTML, like Gecko) Chrome/131.0.0.0 Safari/537.36" version="26.0.11">
  <diagram name="Page-1" id="zizgYSK4fd93U89U_iZt">
    <mxGraphModel dx="862" dy="407" grid="0" gridSize="10" guides="1" tooltips="1" connect="1" arrows="1" fold="1" page="1" pageScale="1" pageWidth="827" pageHeight="1169" math="0" shadow="0">
      <root>
        <mxCell id="0" />
        <mxCell id="1" parent="0" />
        <mxCell id="Oj8fX34uj9PEj3uQCiQN-57" value="" style="group;labelBackgroundColor=default;labelBorderColor=default;textShadow=0;textOpacity=80;" vertex="1" connectable="0" parent="1">
          <mxGeometry x="25" y="511" width="621" height="52" as="geometry" />
        </mxCell>
        <mxCell id="Oj8fX34uj9PEj3uQCiQN-58" value="" style="shape=folder;fontStyle=1;spacingTop=10;tabWidth=141;tabHeight=16;tabPosition=left;html=1;whiteSpace=wrap;" vertex="1" parent="Oj8fX34uj9PEj3uQCiQN-57">
          <mxGeometry x="7" y="4.875" width="614" height="47.125" as="geometry" />
        </mxCell>
        <mxCell id="Oj8fX34uj9PEj3uQCiQN-59" value="&lt;font style=&quot;font-size: 6px;&quot;&gt;&lt;b&gt;Manual Migration for Unchecked-In code&lt;/b&gt;&lt;/font&gt;" style="text;html=1;align=left;verticalAlign=middle;whiteSpace=wrap;rounded=0;labelBackgroundColor=light-dark(#c2c1c1, #ededed);" vertex="1" parent="Oj8fX34uj9PEj3uQCiQN-57">
          <mxGeometry x="8" y="1" width="140" height="22" as="geometry" />
        </mxCell>
        <mxCell id="Oj8fX34uj9PEj3uQCiQN-76" value="" style="endArrow=classic;html=1;rounded=0;" edge="1" parent="Oj8fX34uj9PEj3uQCiQN-57">
          <mxGeometry width="50" height="50" relative="1" as="geometry">
            <mxPoint x="27.5" y="41" as="sourcePoint" />
            <mxPoint x="611" y="41" as="targetPoint" />
          </mxGeometry>
        </mxCell>
        <mxCell id="Oj8fX34uj9PEj3uQCiQN-77" value="&lt;font style=&quot;font-size: 6px;&quot;&gt;Manually add unchecked-in code&lt;/font&gt;" style="text;html=1;align=center;verticalAlign=middle;resizable=0;points=[];autosize=1;strokeColor=none;fillColor=none;" vertex="1" parent="Oj8fX34uj9PEj3uQCiQN-57">
          <mxGeometry x="30.5" y="18" width="106" height="26" as="geometry" />
        </mxCell>
        <mxCell id="Oj8fX34uj9PEj3uQCiQN-44" value="" style="group" vertex="1" connectable="0" parent="1">
          <mxGeometry x="25" y="419" width="621" height="96" as="geometry" />
        </mxCell>
        <mxCell id="Oj8fX34uj9PEj3uQCiQN-39" value="" style="shape=folder;fontStyle=1;spacingTop=10;tabWidth=141;tabHeight=16;tabPosition=left;html=1;whiteSpace=wrap;" vertex="1" parent="Oj8fX34uj9PEj3uQCiQN-44">
          <mxGeometry x="7" y="9" width="614" height="87" as="geometry" />
        </mxCell>
        <mxCell id="Oj8fX34uj9PEj3uQCiQN-42" value="&lt;font style=&quot;font-size: 6px;&quot;&gt;&lt;b&gt;Handling Future Changes&lt;/b&gt;&lt;/font&gt;" style="text;html=1;align=left;verticalAlign=middle;whiteSpace=wrap;rounded=0;labelBackgroundColor=light-dark(#c1bfbf, #ededed);" vertex="1" parent="Oj8fX34uj9PEj3uQCiQN-44">
          <mxGeometry x="8" y="11" width="134" height="12" as="geometry" />
        </mxCell>
        <mxCell id="Oj8fX34uj9PEj3uQCiQN-45" value="" style="endArrow=classic;html=1;rounded=0;" edge="1" parent="Oj8fX34uj9PEj3uQCiQN-44">
          <mxGeometry width="50" height="50" relative="1" as="geometry">
            <mxPoint x="25" y="45" as="sourcePoint" />
            <mxPoint x="114" y="45" as="targetPoint" />
          </mxGeometry>
        </mxCell>
        <mxCell id="Oj8fX34uj9PEj3uQCiQN-46" value="&lt;font style=&quot;font-size: 6px;&quot;&gt;Make new code changes&lt;/font&gt;" style="text;html=1;align=center;verticalAlign=middle;resizable=0;points=[];autosize=1;strokeColor=none;fillColor=none;" vertex="1" parent="Oj8fX34uj9PEj3uQCiQN-44">
          <mxGeometry x="25" y="22" width="84" height="26" as="geometry" />
        </mxCell>
        <mxCell id="Oj8fX34uj9PEj3uQCiQN-49" value="" style="endArrow=classic;html=1;rounded=0;" edge="1" parent="Oj8fX34uj9PEj3uQCiQN-44">
          <mxGeometry width="50" height="50" relative="1" as="geometry">
            <mxPoint x="28" y="59" as="sourcePoint" />
            <mxPoint x="205" y="59" as="targetPoint" />
          </mxGeometry>
        </mxCell>
        <mxCell id="Oj8fX34uj9PEj3uQCiQN-50" value="&lt;font style=&quot;font-size: 6px;&quot;&gt;git tfs pull&lt;/font&gt;" style="text;html=1;align=center;verticalAlign=middle;resizable=0;points=[];autosize=1;strokeColor=none;fillColor=none;" vertex="1" parent="Oj8fX34uj9PEj3uQCiQN-44">
          <mxGeometry x="54" y="36" width="43" height="26" as="geometry" />
        </mxCell>
        <mxCell id="Oj8fX34uj9PEj3uQCiQN-51" value="" style="endArrow=classic;html=1;rounded=0;" edge="1" parent="Oj8fX34uj9PEj3uQCiQN-44">
          <mxGeometry width="50" height="50" relative="1" as="geometry">
            <mxPoint x="205" y="69" as="sourcePoint" />
            <mxPoint x="306" y="69" as="targetPoint" />
          </mxGeometry>
        </mxCell>
        <mxCell id="Oj8fX34uj9PEj3uQCiQN-52" value="&lt;font style=&quot;font-size: 6px;&quot;&gt;git push talbot-git --all&lt;/font&gt;" style="text;html=1;align=center;verticalAlign=middle;resizable=0;points=[];autosize=1;strokeColor=none;fillColor=none;" vertex="1" parent="Oj8fX34uj9PEj3uQCiQN-44">
          <mxGeometry x="215" y="46" width="75" height="26" as="geometry" />
        </mxCell>
        <mxCell id="Oj8fX34uj9PEj3uQCiQN-53" value="" style="endArrow=classic;html=1;rounded=0;" edge="1" parent="Oj8fX34uj9PEj3uQCiQN-44">
          <mxGeometry width="50" height="50" relative="1" as="geometry">
            <mxPoint x="307" y="79" as="sourcePoint" />
            <mxPoint x="521" y="80" as="targetPoint" />
          </mxGeometry>
        </mxCell>
        <mxCell id="Oj8fX34uj9PEj3uQCiQN-54" value="&lt;font style=&quot;font-size: 6px;&quot;&gt;git pull talbot-git&lt;/font&gt;" style="text;html=1;align=center;verticalAlign=middle;resizable=0;points=[];autosize=1;strokeColor=none;fillColor=none;" vertex="1" parent="Oj8fX34uj9PEj3uQCiQN-44">
          <mxGeometry x="327" y="57" width="60" height="26" as="geometry" />
        </mxCell>
        <mxCell id="Oj8fX34uj9PEj3uQCiQN-55" value="" style="endArrow=classic;html=1;rounded=0;" edge="1" parent="Oj8fX34uj9PEj3uQCiQN-44">
          <mxGeometry width="50" height="50" relative="1" as="geometry">
            <mxPoint x="522" y="89" as="sourcePoint" />
            <mxPoint x="611" y="89" as="targetPoint" />
          </mxGeometry>
        </mxCell>
        <mxCell id="Oj8fX34uj9PEj3uQCiQN-56" value="&lt;font style=&quot;font-size: 6px;&quot;&gt;git push aig-github --all&lt;/font&gt;" style="text;html=1;align=center;verticalAlign=middle;resizable=0;points=[];autosize=1;strokeColor=none;fillColor=none;" vertex="1" parent="Oj8fX34uj9PEj3uQCiQN-44">
          <mxGeometry x="530" y="66" width="79" height="26" as="geometry" />
        </mxCell>
        <UserObject label="&lt;font style=&quot;font-size: 6px;&quot;&gt;&lt;b&gt;Developer&lt;/b&gt;&lt;/font&gt;" id="Oj8fX34uj9PEj3uQCiQN-1">
          <mxCell style="shape=umlActor;verticalLabelPosition=bottom;verticalAlign=top;html=1;outlineConnect=0;" vertex="1" parent="1">
            <mxGeometry x="46" y="291" width="14" height="29" as="geometry" />
          </mxCell>
        </UserObject>
        <mxCell id="Oj8fX34uj9PEj3uQCiQN-4" value="&lt;font style=&quot;font-size: 6px;&quot;&gt;Talbot TFS Repo&lt;/font&gt;" style="rounded=0;whiteSpace=wrap;html=1;fillColor=light-dark(#FFCC99,var(--ge-dark-color, #121212));" vertex="1" parent="1">
          <mxGeometry x="123" y="312" width="51" height="22" as="geometry" />
        </mxCell>
        <mxCell id="Oj8fX34uj9PEj3uQCiQN-5" value="&lt;font style=&quot;font-size: 6px;&quot;&gt;Local Git Repo&lt;/font&gt;" style="rounded=0;whiteSpace=wrap;html=1;fillColor=light-dark(#CCCCCC,var(--ge-dark-color, #121212));" vertex="1" parent="1">
          <mxGeometry x="207" y="312" width="51" height="22" as="geometry" />
        </mxCell>
        <mxCell id="Oj8fX34uj9PEj3uQCiQN-6" value="&lt;font style=&quot;font-size: 6px;&quot;&gt;Talbot Git Repo (Azure Devops)&lt;/font&gt;" style="rounded=0;whiteSpace=wrap;html=1;fillColor=light-dark(#FFCC99,var(--ge-dark-color, #121212));" vertex="1" parent="1">
          <mxGeometry x="291" y="312" width="95" height="22" as="geometry" />
        </mxCell>
        <mxCell id="Oj8fX34uj9PEj3uQCiQN-7" value="&lt;font style=&quot;font-size: 6px;&quot;&gt;AIG Landing Area&lt;/font&gt;" style="rounded=0;whiteSpace=wrap;html=1;fillColor=light-dark(#CCCCCC,var(--ge-dark-color, #121212));" vertex="1" parent="1">
          <mxGeometry x="520" y="312" width="55" height="22" as="geometry" />
        </mxCell>
        <mxCell id="Oj8fX34uj9PEj3uQCiQN-8" value="&lt;font style=&quot;font-size: 6px;&quot;&gt;AIG GitHub Repo&lt;/font&gt;" style="rounded=0;whiteSpace=wrap;html=1;fillColor=light-dark(#FFCC99,var(--ge-dark-color, #121212));" vertex="1" parent="1">
          <mxGeometry x="607" y="312" width="55" height="22" as="geometry" />
        </mxCell>
        <mxCell id="Oj8fX34uj9PEj3uQCiQN-9" value="" style="shape=image;html=1;verticalAlign=top;verticalLabelPosition=bottom;labelBackgroundColor=#ffffff;imageAspect=0;aspect=fixed;image=https://cdn1.iconfinder.com/data/icons/picons-social/57/github_rounded-128.png" vertex="1" parent="1">
          <mxGeometry x="607" y="291" width="19" height="19" as="geometry" />
        </mxCell>
        <mxCell id="Oj8fX34uj9PEj3uQCiQN-10" value="" style="image;aspect=fixed;html=1;points=[];align=center;fontSize=12;image=img/lib/azure2/general/TFS_VC_Repository.svg;" vertex="1" parent="1">
          <mxGeometry x="123" y="288" width="19" height="19" as="geometry" />
        </mxCell>
        <mxCell id="Oj8fX34uj9PEj3uQCiQN-12" value="" style="endArrow=none;dashed=1;html=1;strokeWidth=1;rounded=0;dashPattern=1 2;" edge="1" parent="1">
          <mxGeometry width="50" height="50" relative="1" as="geometry">
            <mxPoint x="51.5" y="571" as="sourcePoint" />
            <mxPoint x="54.5" y="342" as="targetPoint" />
          </mxGeometry>
        </mxCell>
        <mxCell id="Oj8fX34uj9PEj3uQCiQN-13" value="" style="endArrow=none;dashed=1;html=1;strokeWidth=1;rounded=0;dashPattern=1 2;" edge="1" parent="1">
          <mxGeometry width="50" height="50" relative="1" as="geometry">
            <mxPoint x="139" y="571" as="sourcePoint" />
            <mxPoint x="142" y="342" as="targetPoint" />
          </mxGeometry>
        </mxCell>
        <mxCell id="Oj8fX34uj9PEj3uQCiQN-14" value="" style="endArrow=none;dashed=1;html=1;strokeWidth=1;rounded=0;dashPattern=1 2;" edge="1" parent="1">
          <mxGeometry width="50" height="50" relative="1" as="geometry">
            <mxPoint x="228" y="571" as="sourcePoint" />
            <mxPoint x="231" y="342" as="targetPoint" />
          </mxGeometry>
        </mxCell>
        <mxCell id="Oj8fX34uj9PEj3uQCiQN-15" value="" style="endArrow=none;dashed=1;html=1;strokeWidth=1;rounded=0;dashPattern=1 2;" edge="1" parent="1">
          <mxGeometry width="50" height="50" relative="1" as="geometry">
            <mxPoint x="332" y="571" as="sourcePoint" />
            <mxPoint x="335" y="342" as="targetPoint" />
          </mxGeometry>
        </mxCell>
        <mxCell id="Oj8fX34uj9PEj3uQCiQN-16" value="" style="endArrow=none;dashed=1;html=1;strokeWidth=1;rounded=0;dashPattern=1 2;" edge="1" parent="1">
          <mxGeometry width="50" height="50" relative="1" as="geometry">
            <mxPoint x="546" y="571" as="sourcePoint" />
            <mxPoint x="549" y="342" as="targetPoint" />
          </mxGeometry>
        </mxCell>
        <mxCell id="Oj8fX34uj9PEj3uQCiQN-17" value="" style="endArrow=none;dashed=1;html=1;strokeWidth=1;rounded=0;dashPattern=1 2;" edge="1" parent="1">
          <mxGeometry width="50" height="50" relative="1" as="geometry">
            <mxPoint x="636" y="571" as="sourcePoint" />
            <mxPoint x="639" y="342" as="targetPoint" />
          </mxGeometry>
        </mxCell>
        <mxCell id="Oj8fX34uj9PEj3uQCiQN-18" value="" style="endArrow=classic;html=1;rounded=0;" edge="1" parent="1">
          <mxGeometry width="50" height="50" relative="1" as="geometry">
            <mxPoint x="54" y="365" as="sourcePoint" />
            <mxPoint x="140" y="365" as="targetPoint" />
          </mxGeometry>
        </mxCell>
        <mxCell id="Oj8fX34uj9PEj3uQCiQN-19" value="&lt;font style=&quot;font-size: 6px;&quot;&gt;Check in all code changes&lt;/font&gt;" style="text;html=1;align=center;verticalAlign=middle;resizable=0;points=[];autosize=1;strokeColor=none;fillColor=none;" vertex="1" parent="1">
          <mxGeometry x="54" y="340" width="88" height="26" as="geometry" />
        </mxCell>
        <mxCell id="Oj8fX34uj9PEj3uQCiQN-20" value="" style="endArrow=classic;html=1;rounded=0;" edge="1" parent="1">
          <mxGeometry width="50" height="50" relative="1" as="geometry">
            <mxPoint x="54" y="386" as="sourcePoint" />
            <mxPoint x="230" y="386" as="targetPoint" />
          </mxGeometry>
        </mxCell>
        <mxCell id="Oj8fX34uj9PEj3uQCiQN-21" value="&lt;font style=&quot;font-size: 6px;&quot;&gt;git tfs clone &amp;lt;TFS_URL&amp;gt; &amp;lt;Local_Git_Repo_Folder&amp;gt;&lt;/font&gt;" style="text;html=1;align=center;verticalAlign=middle;resizable=0;points=[];autosize=1;strokeColor=none;fillColor=none;" vertex="1" parent="1">
          <mxGeometry x="62" y="361" width="156" height="26" as="geometry" />
        </mxCell>
        <mxCell id="Oj8fX34uj9PEj3uQCiQN-22" value="" style="endArrow=classic;html=1;rounded=0;" edge="1" parent="1">
          <mxGeometry width="50" height="50" relative="1" as="geometry">
            <mxPoint x="231" y="400" as="sourcePoint" />
            <mxPoint x="332" y="400" as="targetPoint" />
          </mxGeometry>
        </mxCell>
        <mxCell id="Oj8fX34uj9PEj3uQCiQN-23" value="&lt;font style=&quot;font-size: 6px;&quot;&gt;git push talbot-git --all&lt;/font&gt;" style="text;html=1;align=center;verticalAlign=middle;resizable=0;points=[];autosize=1;strokeColor=none;fillColor=none;" vertex="1" parent="1">
          <mxGeometry x="241" y="377" width="75" height="26" as="geometry" />
        </mxCell>
        <mxCell id="Oj8fX34uj9PEj3uQCiQN-24" value="" style="endArrow=classic;html=1;rounded=0;" edge="1" parent="1">
          <mxGeometry width="50" height="50" relative="1" as="geometry">
            <mxPoint x="336" y="415" as="sourcePoint" />
            <mxPoint x="547" y="414" as="targetPoint" />
          </mxGeometry>
        </mxCell>
        <mxCell id="Oj8fX34uj9PEj3uQCiQN-25" value="&lt;font style=&quot;font-size: 6px;&quot;&gt;git clone &amp;lt;Talbot_Git_Repo_URL&amp;gt;&amp;lt;AIG_Landing_Area_Folder&amp;gt;&lt;/font&gt;" style="text;html=1;align=center;verticalAlign=middle;resizable=0;points=[];autosize=1;strokeColor=none;fillColor=none;" vertex="1" parent="1">
          <mxGeometry x="347" y="386" width="187" height="26" as="geometry" />
        </mxCell>
        <mxCell id="Oj8fX34uj9PEj3uQCiQN-26" value="" style="endArrow=classic;html=1;rounded=0;" edge="1" parent="1">
          <mxGeometry width="50" height="50" relative="1" as="geometry">
            <mxPoint x="548" y="427" as="sourcePoint" />
            <mxPoint x="637" y="427" as="targetPoint" />
          </mxGeometry>
        </mxCell>
        <mxCell id="Oj8fX34uj9PEj3uQCiQN-27" value="&lt;font style=&quot;font-size: 6px;&quot;&gt;git push aig-github --all&lt;/font&gt;" style="text;html=1;align=center;verticalAlign=middle;resizable=0;points=[];autosize=1;strokeColor=none;fillColor=none;" vertex="1" parent="1">
          <mxGeometry x="552" y="402" width="79" height="26" as="geometry" />
        </mxCell>
        <mxCell id="Oj8fX34uj9PEj3uQCiQN-70" value="&lt;font style=&quot;font-size: 6px;&quot;&gt;Talbot TFS Repo&lt;/font&gt;" style="rounded=0;whiteSpace=wrap;html=1;fillColor=light-dark(#FFCC99,var(--ge-dark-color, #121212));" vertex="1" parent="1">
          <mxGeometry x="116" y="574" width="51" height="22" as="geometry" />
        </mxCell>
        <mxCell id="Oj8fX34uj9PEj3uQCiQN-71" value="&lt;font style=&quot;font-size: 6px;&quot;&gt;Local Git Repo&lt;/font&gt;" style="rounded=0;whiteSpace=wrap;html=1;fillColor=light-dark(#CCCCCC,var(--ge-dark-color, #121212));" vertex="1" parent="1">
          <mxGeometry x="200" y="574" width="51" height="22" as="geometry" />
        </mxCell>
        <mxCell id="Oj8fX34uj9PEj3uQCiQN-72" value="&lt;font style=&quot;font-size: 6px;&quot;&gt;Talbot Git Repo (Azure Devops)&lt;/font&gt;" style="rounded=0;whiteSpace=wrap;html=1;fillColor=light-dark(#FFCC99,var(--ge-dark-color, #121212));" vertex="1" parent="1">
          <mxGeometry x="284" y="574" width="95" height="22" as="geometry" />
        </mxCell>
        <mxCell id="Oj8fX34uj9PEj3uQCiQN-73" value="&lt;font style=&quot;font-size: 6px;&quot;&gt;AIG Landing Area&lt;/font&gt;" style="rounded=0;whiteSpace=wrap;html=1;fillColor=light-dark(#CCCCCC,var(--ge-dark-color, #121212));" vertex="1" parent="1">
          <mxGeometry x="513" y="574" width="55" height="22" as="geometry" />
        </mxCell>
        <mxCell id="Oj8fX34uj9PEj3uQCiQN-74" value="&lt;font style=&quot;font-size: 6px;&quot;&gt;AIG GitHub Repo&lt;/font&gt;" style="rounded=0;whiteSpace=wrap;html=1;fillColor=light-dark(#FFCC99,var(--ge-dark-color, #121212));" vertex="1" parent="1">
          <mxGeometry x="600" y="574" width="55" height="22" as="geometry" />
        </mxCell>
      </root>
    </mxGraphModel>
  </diagram>
</mxfile>
